<svg width="347" height="64" viewBox="0 0 347 64" fill="none" xmlns="http://www.w3.org/2000/svg">
<path d="M132.008 26.208L132.56 24.456C133.496 25.056 134.84 25.512 136.28 25.512C138.416 25.512 139.664 24.384 139.664 22.752C139.664 21.264 138.8 20.376 136.616 19.56C133.976 18.6 132.344 17.208 132.344 14.952C132.344 12.432 134.432 10.56 137.576 10.56C139.208 10.56 140.432 10.944 141.128 11.352L140.552 13.056C140.048 12.744 138.968 12.288 137.504 12.288C135.296 12.288 134.456 13.608 134.456 14.712C134.456 16.224 135.44 16.968 137.672 17.832C140.408 18.888 141.776 20.208 141.776 22.584C141.776 25.08 139.952 27.264 136.136 27.264C134.576 27.264 132.872 26.784 132.008 26.208ZM146.7 27H144.588V15.384H146.7V27ZM145.644 10.8C146.412 10.8 146.94 11.376 146.94 12.12C146.94 12.84 146.436 13.416 145.596 13.416C144.828 13.416 144.324 12.84 144.324 12.12C144.324 11.4 144.852 10.8 145.644 10.8ZM149.421 26.448L149.925 24.864C150.573 25.248 151.677 25.68 152.733 25.68C154.245 25.68 154.965 24.936 154.965 23.952C154.965 22.944 154.365 22.416 152.829 21.84C150.717 21.072 149.733 19.944 149.733 18.552C149.733 16.68 151.269 15.144 153.741 15.144C154.917 15.144 155.949 15.456 156.573 15.864L156.069 17.4C155.613 17.112 154.773 16.704 153.693 16.704C152.445 16.704 151.773 17.424 151.773 18.288C151.773 19.248 152.445 19.68 153.957 20.28C155.949 21.024 157.005 22.032 157.005 23.76C157.005 25.824 155.397 27.264 152.685 27.264C151.413 27.264 150.237 26.928 149.421 26.448ZM160.209 13.224L162.273 12.6V15.384H165.297V16.992H162.273V23.256C162.273 24.696 162.681 25.512 163.857 25.512C164.433 25.512 164.769 25.464 165.081 25.368L165.177 26.976C164.769 27.12 164.121 27.264 163.305 27.264C162.321 27.264 161.529 26.928 161.025 26.376C160.449 25.728 160.209 24.696 160.209 23.328V16.992H158.409V15.384H160.209V13.224ZM176.869 21.576H168.709C168.757 24.432 170.557 25.608 172.693 25.608C174.205 25.608 175.141 25.344 175.909 25.008L176.293 26.52C175.549 26.856 174.253 27.264 172.405 27.264C168.829 27.264 166.693 24.888 166.693 21.384C166.693 17.88 168.757 15.144 172.141 15.144C175.957 15.144 176.941 18.456 176.941 20.592C176.941 21.024 176.917 21.336 176.869 21.576ZM168.733 20.064H174.901C174.925 18.744 174.349 16.656 171.973 16.656C169.813 16.656 168.901 18.6 168.733 20.064ZM179.557 27V18.528C179.557 17.304 179.509 16.344 179.461 15.384H181.309L181.405 17.28H181.477C182.125 16.176 183.205 15.144 185.149 15.144C186.709 15.144 187.909 16.104 188.413 17.472H188.461C188.821 16.8 189.301 16.32 189.781 15.96C190.477 15.432 191.221 15.144 192.325 15.144C193.885 15.144 196.165 16.152 196.165 20.184V27H194.101V20.448C194.101 18.192 193.261 16.872 191.581 16.872C190.357 16.872 189.445 17.76 189.061 18.768C188.965 19.08 188.893 19.44 188.893 19.824V27H186.829V20.04C186.829 18.192 186.013 16.872 184.405 16.872C183.109 16.872 182.125 17.928 181.789 18.984C181.669 19.272 181.621 19.656 181.621 20.016V27H179.557ZM207.732 19.872V24.216C207.732 25.224 207.78 26.208 207.9 27H206.004L205.836 25.536H205.764C205.116 26.448 203.868 27.264 202.212 27.264C199.86 27.264 198.66 25.608 198.66 23.928C198.66 21.12 201.156 19.584 205.644 19.608V19.368C205.644 18.432 205.38 16.68 203.004 16.704C201.9 16.704 200.772 17.016 199.956 17.568L199.476 16.152C200.436 15.552 201.852 15.144 203.316 15.144C206.868 15.144 207.732 17.568 207.732 19.872ZM205.692 23.088V21.072C203.388 21.024 200.772 21.432 200.772 23.688C200.772 25.08 201.684 25.704 202.74 25.704C204.276 25.704 205.26 24.744 205.596 23.76C205.668 23.52 205.692 23.28 205.692 23.088ZM224.156 9.96H226.244V24C226.244 25.032 226.292 26.208 226.34 27H224.468L224.372 24.984H224.3C223.676 26.28 222.284 27.264 220.388 27.264C217.58 27.264 215.396 24.888 215.396 21.36C215.372 17.496 217.796 15.144 220.604 15.144C222.404 15.144 223.58 15.984 224.108 16.896H224.156V9.96ZM224.156 22.128V20.112C224.156 19.848 224.132 19.488 224.06 19.224C223.748 17.904 222.596 16.8 221.012 16.8C218.828 16.8 217.532 18.72 217.532 21.264C217.532 23.616 218.708 25.56 220.964 25.56C222.38 25.56 223.676 24.6 224.06 23.04C224.132 22.752 224.156 22.464 224.156 22.128ZM239.119 21.576H230.959C231.007 24.432 232.807 25.608 234.943 25.608C236.455 25.608 237.391 25.344 238.159 25.008L238.543 26.52C237.799 26.856 236.503 27.264 234.655 27.264C231.079 27.264 228.943 24.888 228.943 21.384C228.943 17.88 231.007 15.144 234.391 15.144C238.207 15.144 239.191 18.456 239.191 20.592C239.191 21.024 239.167 21.336 239.119 21.576ZM230.983 20.064H237.151C237.175 18.744 236.599 16.656 234.223 16.656C232.063 16.656 231.151 18.6 230.983 20.064ZM259.301 18.504V26.28C258.365 26.64 256.493 27.168 254.309 27.168C251.861 27.168 249.845 26.544 248.261 25.032C246.869 23.688 246.005 21.528 246.005 19.008C246.005 14.184 249.341 10.656 254.765 10.656C256.637 10.656 258.125 11.064 258.821 11.4L258.293 13.104C257.429 12.696 256.349 12.408 254.717 12.408C250.781 12.408 248.213 14.856 248.213 18.912C248.213 23.016 250.661 25.44 254.453 25.44C255.821 25.44 256.757 25.248 257.237 25.008V20.184H253.973V18.504H259.301ZM271.861 21.576H263.701C263.749 24.432 265.549 25.608 267.685 25.608C269.197 25.608 270.133 25.344 270.901 25.008L271.285 26.52C270.541 26.856 269.245 27.264 267.397 27.264C263.821 27.264 261.685 24.888 261.685 21.384C261.685 17.88 263.749 15.144 267.133 15.144C270.949 15.144 271.933 18.456 271.933 20.592C271.933 21.024 271.909 21.336 271.861 21.576ZM263.725 20.064H269.893C269.917 18.744 269.341 16.656 266.965 16.656C264.805 16.656 263.893 18.6 263.725 20.064ZM273.757 26.448L274.261 24.864C274.909 25.248 276.013 25.68 277.069 25.68C278.581 25.68 279.301 24.936 279.301 23.952C279.301 22.944 278.701 22.416 277.165 21.84C275.053 21.072 274.069 19.944 274.069 18.552C274.069 16.68 275.605 15.144 278.077 15.144C279.253 15.144 280.285 15.456 280.909 15.864L280.405 17.4C279.949 17.112 279.109 16.704 278.029 16.704C276.781 16.704 276.109 17.424 276.109 18.288C276.109 19.248 276.781 19.68 278.293 20.28C280.285 21.024 281.341 22.032 281.341 23.76C281.341 25.824 279.733 27.264 277.021 27.264C275.749 27.264 274.573 26.928 273.757 26.448ZM284.545 13.224L286.609 12.6V15.384H289.633V16.992H286.609V23.256C286.609 24.696 287.017 25.512 288.193 25.512C288.769 25.512 289.105 25.464 289.417 25.368L289.513 26.976C289.105 27.12 288.457 27.264 287.641 27.264C286.657 27.264 285.865 26.928 285.361 26.376C284.785 25.728 284.545 24.696 284.545 23.328V16.992H282.745V15.384H284.545V13.224ZM294.122 27H292.01V15.384H294.122V27ZM293.066 10.8C293.834 10.8 294.362 11.376 294.362 12.12C294.362 12.84 293.858 13.416 293.018 13.416C292.25 13.416 291.746 12.84 291.746 12.12C291.746 11.4 292.274 10.8 293.066 10.8ZM302.555 15.144C305.891 15.144 308.147 17.568 308.147 21.096C308.147 25.392 305.147 27.264 302.363 27.264C299.243 27.264 296.795 24.96 296.795 21.288C296.795 17.424 299.363 15.144 302.555 15.144ZM302.507 16.728C300.035 16.728 298.955 19.032 298.955 21.216C298.955 23.76 300.395 25.68 302.459 25.68C304.475 25.68 305.987 23.784 305.987 21.168C305.987 19.2 305.003 16.728 302.507 16.728ZM303.299 10.368H305.627L302.699 13.8H301.211L303.299 10.368ZM310.807 27V18.528C310.807 17.304 310.783 16.344 310.711 15.384H312.583L312.703 17.304H312.751C313.327 16.224 314.671 15.144 316.591 15.144C318.199 15.144 320.695 16.104 320.695 20.088V27H318.583V20.304C318.583 18.432 317.887 16.872 315.895 16.872C314.527 16.872 313.447 17.856 313.063 19.032C312.967 19.296 312.919 19.656 312.919 20.016V27H310.807ZM140.672 38.96H142.76V53C142.76 54.032 142.808 55.208 142.856 56H140.984L140.888 53.984H140.816C140.192 55.28 138.8 56.264 136.904 56.264C134.096 56.264 131.912 53.888 131.912 50.36C131.888 46.496 134.312 44.144 137.12 44.144C138.92 44.144 140.096 44.984 140.624 45.896H140.672V38.96ZM140.672 51.128V49.112C140.672 48.848 140.648 48.488 140.576 48.224C140.264 46.904 139.112 45.8 137.528 45.8C135.344 45.8 134.048 47.72 134.048 50.264C134.048 52.616 135.224 54.56 137.48 54.56C138.896 54.56 140.192 53.6 140.576 52.04C140.648 51.752 140.672 51.464 140.672 51.128ZM155.635 50.576H147.475C147.523 53.432 149.323 54.608 151.459 54.608C152.971 54.608 153.907 54.344 154.675 54.008L155.059 55.52C154.315 55.856 153.019 56.264 151.171 56.264C147.595 56.264 145.459 53.888 145.459 50.384C145.459 46.88 147.523 44.144 150.907 44.144C154.723 44.144 155.707 47.456 155.707 49.592C155.707 50.024 155.683 50.336 155.635 50.576ZM147.499 49.064H153.667C153.691 47.744 153.115 45.656 150.739 45.656C148.579 45.656 147.667 47.6 147.499 49.064ZM163.48 55.952V40.064C164.752 39.848 166.264 39.704 167.92 39.704C170.92 39.704 173.056 40.424 174.472 41.72C175.936 43.04 176.776 44.912 176.776 47.528C176.776 50.168 175.936 52.328 174.448 53.816C172.912 55.328 170.416 56.144 167.272 56.144C165.76 56.144 164.536 56.072 163.48 55.952ZM165.568 41.576V54.368C166.096 54.44 166.864 54.464 167.68 54.464C172.168 54.464 174.568 51.968 174.568 47.6C174.592 43.784 172.432 41.36 168.016 41.36C166.936 41.36 166.12 41.456 165.568 41.576ZM188.822 50.576H180.662C180.71 53.432 182.51 54.608 184.646 54.608C186.158 54.608 187.094 54.344 187.862 54.008L188.246 55.52C187.502 55.856 186.206 56.264 184.358 56.264C180.782 56.264 178.646 53.888 178.646 50.384C178.646 46.88 180.71 44.144 184.094 44.144C187.91 44.144 188.894 47.456 188.894 49.592C188.894 50.024 188.87 50.336 188.822 50.576ZM180.686 49.064H186.854C186.878 47.744 186.302 45.656 183.926 45.656C181.766 45.656 180.854 47.6 180.686 49.064ZM191.51 56V47.528C191.51 46.304 191.486 45.344 191.414 44.384H193.286L193.406 46.304H193.454C194.03 45.224 195.374 44.144 197.294 44.144C198.902 44.144 201.398 45.104 201.398 49.088V56H199.286V49.304C199.286 47.432 198.59 45.872 196.598 45.872C195.23 45.872 194.15 46.856 193.766 48.032C193.67 48.296 193.622 48.656 193.622 49.016V56H191.51ZM214.542 44.384V52.808C214.542 54.032 214.566 55.088 214.638 56H212.766L212.646 54.104H212.598C212.07 55.04 210.822 56.264 208.758 56.264C206.934 56.264 204.75 55.232 204.75 51.176V44.384H206.862V50.792C206.862 53 207.558 54.512 209.454 54.512C210.87 54.512 211.854 53.528 212.238 52.568C212.358 52.28 212.43 51.896 212.43 51.488V44.384H214.542ZM218.041 56V47.528C218.041 46.304 218.017 45.344 217.945 44.384H219.817L219.937 46.304H219.985C220.561 45.224 221.905 44.144 223.825 44.144C225.433 44.144 227.929 45.104 227.929 49.088V56H225.817V49.304C225.817 47.432 225.121 45.872 223.129 45.872C221.761 45.872 220.681 46.856 220.297 48.032C220.201 48.296 220.153 48.656 220.153 49.016V56H218.041ZM239.274 54.008L239.634 55.592C239.082 55.856 237.858 56.264 236.298 56.264C232.794 56.264 230.514 53.888 230.514 50.336C230.514 46.76 232.962 44.144 236.754 44.144C238.002 44.144 239.106 44.456 239.682 44.768L239.202 46.376C238.698 46.112 237.906 45.824 236.754 45.824C234.09 45.824 232.65 47.816 232.65 50.216C232.65 52.904 234.378 54.56 236.682 54.56C237.882 54.56 238.674 54.272 239.274 54.008ZM244.223 56H242.111V44.384H244.223V56ZM243.167 39.8C243.935 39.8 244.463 40.376 244.463 41.12C244.463 41.84 243.959 42.416 243.119 42.416C242.351 42.416 241.847 41.84 241.847 41.12C241.847 40.4 242.375 39.8 243.167 39.8ZM255.896 48.872V53.216C255.896 54.224 255.944 55.208 256.064 56H254.168L254 54.536H253.928C253.28 55.448 252.032 56.264 250.376 56.264C248.024 56.264 246.824 54.608 246.824 52.928C246.824 50.12 249.32 48.584 253.808 48.608V48.368C253.808 47.432 253.544 45.68 251.168 45.704C250.064 45.704 248.936 46.016 248.12 46.568L247.64 45.152C248.6 44.552 250.016 44.144 251.48 44.144C255.032 44.144 255.896 46.568 255.896 48.872ZM253.856 52.088V50.072C251.552 50.024 248.936 50.432 248.936 52.688C248.936 54.08 249.848 54.704 250.904 54.704C252.44 54.704 253.424 53.744 253.76 52.76C253.832 52.52 253.856 52.28 253.856 52.088ZM258.523 55.448L259.027 53.864C259.675 54.248 260.779 54.68 261.835 54.68C263.347 54.68 264.067 53.936 264.067 52.952C264.067 51.944 263.467 51.416 261.931 50.84C259.819 50.072 258.835 48.944 258.835 47.552C258.835 45.68 260.371 44.144 262.843 44.144C264.019 44.144 265.051 44.456 265.675 44.864L265.171 46.4C264.715 46.112 263.875 45.704 262.795 45.704C261.547 45.704 260.875 46.424 260.875 47.288C260.875 48.248 261.547 48.68 263.059 49.28C265.051 50.024 266.107 51.032 266.107 52.76C266.107 54.824 264.499 56.264 261.787 56.264C260.515 56.264 259.339 55.928 258.523 55.448Z" fill="white"/>
<path d="M2.56 52.952L4.544 44.952C7.104 46.296 11.2 47.64 15.36 47.64C19.84 47.64 22.208 45.784 22.208 42.968C22.208 40.28 20.16 38.744 14.976 36.952C7.808 34.392 3.072 30.424 3.072 24.152C3.072 16.792 9.28 11.224 19.392 11.224C24.32 11.224 27.84 12.184 30.4 13.4L28.224 21.208C26.56 20.376 23.424 19.16 19.264 19.16C15.04 19.16 12.992 21.144 12.992 23.32C12.992 26.072 15.36 27.288 20.992 29.4C28.608 32.216 32.128 36.184 32.128 42.264C32.128 49.496 26.624 55.64 14.784 55.64C9.856 55.64 4.992 54.296 2.56 52.952ZM74.8185 30.296V53.016C71.8105 54.04 66.1145 55.448 60.4185 55.448C52.5465 55.448 46.8505 53.464 42.8825 49.688C38.9785 45.912 36.8025 40.28 36.8025 33.944C36.8665 19.608 47.2985 11.416 61.4425 11.416C67.0105 11.416 71.2985 12.504 73.4105 13.464L71.3625 21.336C68.9945 20.248 66.1145 19.48 61.3785 19.48C53.2505 19.48 47.0425 24.024 47.0425 33.432C47.0425 42.392 52.6745 47.576 60.6745 47.576C62.8505 47.576 64.6425 47.32 65.4105 47V37.912H58.7545V30.296H74.8185ZM82.4115 54.808V12.504C85.9955 11.928 90.6675 11.544 95.5315 11.544C103.788 11.544 109.164 13.08 113.26 16.152C117.74 19.48 120.556 24.792 120.556 32.408C120.556 40.664 117.548 46.36 113.451 49.88C108.908 53.656 101.932 55.448 93.4835 55.448C88.4275 55.448 84.7795 55.128 82.4115 54.808ZM92.1395 19.416V47.64C92.9715 47.832 94.3795 47.832 95.5315 47.832C104.428 47.896 110.252 43.032 110.252 32.728C110.252 23.768 105.004 19.032 96.5555 19.032C94.4435 19.032 92.9715 19.224 92.1395 19.416Z" fill="white"/>
</svg>
