<svg width="123" height="64" viewBox="0 0 123 64" fill="none" xmlns="http://www.w3.org/2000/svg">
<path d="M2.56 52.952L4.544 44.952C7.104 46.296 11.2 47.64 15.36 47.64C19.84 47.64 22.208 45.784 22.208 42.968C22.208 40.28 20.16 38.744 14.976 36.952C7.808 34.392 3.072 30.424 3.072 24.152C3.072 16.792 9.28 11.224 19.392 11.224C24.32 11.224 27.84 12.184 30.4 13.4L28.224 21.208C26.56 20.376 23.424 19.16 19.264 19.16C15.04 19.16 12.992 21.144 12.992 23.32C12.992 26.072 15.36 27.288 20.992 29.4C28.608 32.216 32.128 36.184 32.128 42.264C32.128 49.496 26.624 55.64 14.784 55.64C9.856 55.64 4.992 54.296 2.56 52.952ZM74.8185 30.296V53.016C71.8105 54.04 66.1145 55.448 60.4185 55.448C52.5465 55.448 46.8505 53.464 42.8825 49.688C38.9785 45.912 36.8025 40.28 36.8025 33.944C36.8665 19.608 47.2985 11.416 61.4425 11.416C67.0105 11.416 71.2985 12.504 73.4105 13.464L71.3625 21.336C68.9945 20.248 66.1145 19.48 61.3785 19.48C53.2505 19.48 47.0425 24.024 47.0425 33.432C47.0425 42.392 52.6745 47.576 60.6745 47.576C62.8505 47.576 64.6425 47.32 65.4105 47V37.912H58.7545V30.296H74.8185ZM82.4115 54.808V12.504C85.9955 11.928 90.6675 11.544 95.5315 11.544C103.788 11.544 109.164 13.08 113.26 16.152C117.74 19.48 120.556 24.792 120.556 32.408C120.556 40.664 117.548 46.36 113.451 49.88C108.908 53.656 101.932 55.448 93.4835 55.448C88.4275 55.448 84.7795 55.128 82.4115 54.808ZM92.1395 19.416V47.64C92.9715 47.832 94.3795 47.832 95.5315 47.832C104.428 47.896 110.252 43.032 110.252 32.728C110.252 23.768 105.004 19.032 96.5555 19.032C94.4435 19.032 92.9715 19.224 92.1395 19.416Z" fill="white"/>
</svg>
